<svg width="2705" height="1990" xmlns="http://www.w3.org/2000/svg" xmlns:xlink="http://www.w3.org/1999/xlink" xml:space="preserve" overflow="hidden"><defs><clipPath id="clip0"><rect x="9283" y="4334" width="2705" height="1990"/></clipPath><clipPath id="clip1"><rect x="9283" y="4333" width="2703" height="1989"/></clipPath><clipPath id="clip2"><rect x="9283" y="4333" width="2703" height="1989"/></clipPath><clipPath id="clip3"><rect x="9283" y="4333" width="2703" height="1989"/></clipPath><clipPath id="clip4"><rect x="9283" y="4333" width="2703" height="1989"/></clipPath><clipPath id="clip5"><rect x="9283" y="4333" width="2703" height="1989"/></clipPath><clipPath id="clip6"><rect x="9283" y="4333" width="2703" height="1989"/></clipPath><clipPath id="clip7"><rect x="9283" y="4333" width="2703" height="1989"/></clipPath><clipPath id="clip8"><rect x="9283" y="4333" width="2703" height="1989"/></clipPath><clipPath id="clip9"><rect x="9582" y="4384" width="2327" height="1757"/></clipPath><clipPath id="clip10"><rect x="9582" y="4384" width="2327" height="1757"/></clipPath><clipPath id="clip11"><rect x="9283" y="4333" width="2703" height="1989"/></clipPath><clipPath id="clip12"><rect x="9283" y="4333" width="2703" height="1989"/></clipPath><clipPath id="clip13"><rect x="9283" y="4333" width="2703" height="1989"/></clipPath><clipPath id="clip14"><rect x="9283" y="4333" width="2703" height="1989"/></clipPath><clipPath id="clip15"><rect x="9283" y="4333" width="2703" height="1989"/></clipPath><clipPath id="clip16"><rect x="9283" y="4333" width="2703" height="1989"/></clipPath><clipPath id="clip17"><rect x="9283" y="4333" width="2703" height="1989"/></clipPath><clipPath id="clip18"><rect x="9283" y="4333" width="2703" height="1989"/></clipPath><clipPath id="clip19"><rect x="9283" y="4333" width="2703" height="1989"/></clipPath><clipPath id="clip20"><rect x="9283" y="4333" width="2703" height="1989"/></clipPath><clipPath id="clip21"><rect x="9283" y="4333" width="2703" height="1989"/></clipPath><clipPath id="clip22"><rect x="9283" y="4333" width="2703" height="1989"/></clipPath><clipPath id="clip23"><rect x="9283" y="4333" width="2703" height="1989"/></clipPath><clipPath id="clip24"><rect x="9283" y="4333" width="2703" height="1989"/></clipPath><clipPath id="clip25"><rect x="9283" y="4333" width="2703" height="1989"/></clipPath><clipPath id="clip26"><rect x="9283" y="4333" width="2703" height="1989"/></clipPath><clipPath id="clip27"><rect x="9283" y="4333" width="2703" height="1989"/></clipPath><clipPath id="clip28"><rect x="9283" y="4333" width="2703" height="1989"/></clipPath><clipPath id="clip29"><rect x="9283" y="4333" width="2703" height="1989"/></clipPath><clipPath id="clip30"><rect x="9283" y="4333" width="2703" height="1989"/></clipPath><clipPath id="clip31"><rect x="9283" y="4333" width="2703" height="1989"/></clipPath><clipPath id="clip32"><rect x="9283" y="4333" width="2703" height="1989"/></clipPath><clipPath id="clip33"><rect x="9283" y="4333" width="2703" height="1989"/></clipPath><clipPath id="clip34"><rect x="9283" y="4333" width="2703" height="1989"/></clipPath><clipPath id="clip35"><rect x="9283" y="4333" width="2703" height="1989"/></clipPath><clipPath id="clip36"><rect x="9283" y="4333" width="2703" height="1989"/></clipPath><clipPath id="clip37"><rect x="9283" y="4333" width="2703" height="1989"/></clipPath><clipPath id="clip38"><rect x="9283" y="4333" width="2703" height="1989"/></clipPath><clipPath id="clip39"><rect x="9283" y="4333" width="2703" height="1989"/></clipPath><clipPath id="clip40"><rect x="9283" y="4333" width="2703" height="1989"/></clipPath><clipPath id="clip41"><rect x="9283" y="4333" width="2703" height="1989"/></clipPath><clipPath id="clip42"><rect x="9283" y="4333" width="2703" height="1989"/></clipPath><clipPath id="clip43"><rect x="9283" y="4333" width="2703" height="1989"/></clipPath><clipPath id="clip44"><rect x="9283" y="4333" width="2703" height="1989"/></clipPath><clipPath id="clip45"><rect x="9283" y="4333" width="2703" height="1989"/></clipPath><clipPath id="clip46"><rect x="9283" y="4333" width="2703" height="1989"/></clipPath><clipPath id="clip47"><rect x="9283" y="4333" width="2703" height="1989"/></clipPath><clipPath id="clip48"><rect x="9283" y="4333" width="2703" height="1989"/></clipPath><clipPath id="clip49"><rect x="9283" y="4333" width="2703" height="1989"/></clipPath><clipPath id="clip50"><rect x="9283" y="4333" width="2703" height="1989"/></clipPath><clipPath id="clip51"><rect x="9283" y="4333" width="2703" height="1989"/></clipPath><clipPath id="clip52"><rect x="9283" y="4333" width="2703" height="1989"/></clipPath><clipPath id="clip53"><rect x="9283" y="4333" width="2703" height="1989"/></clipPath><clipPath id="clip54"><rect x="9283" y="4333" width="2703" height="1989"/></clipPath><clipPath id="clip55"><rect x="9283" y="4333" width="2703" height="1989"/></clipPath><clipPath id="clip56"><rect x="9283" y="4333" width="2703" height="1989"/></clipPath><clipPath id="clip57"><rect x="9283" y="4333" width="2703" height="1989"/></clipPath><clipPath id="clip58"><rect x="9283" y="4333" width="2703" height="1989"/></clipPath><clipPath id="clip59"><rect x="9283" y="4333" width="2703" height="1989"/></clipPath><clipPath id="clip60"><rect x="9283" y="4333" width="2703" height="1989"/></clipPath><clipPath id="clip61"><rect x="9283" y="4333" width="2703" height="1989"/></clipPath><clipPath id="clip62"><rect x="9283" y="4333" width="2703" height="1989"/></clipPath><clipPath id="clip63"><rect x="9283" y="4333" width="2703" height="1989"/></clipPath><clipPath id="clip64"><rect x="9283" y="4333" width="2703" height="1989"/></clipPath><clipPath id="clip65"><rect x="9283" y="4333" width="2703" height="1989"/></clipPath></defs><g clip-path="url(#clip0)" transform="translate(-9283 -4334)"><rect x="9283" y="4334" width="2704" height="1989" fill="#FFFFFF"/><g clip-path="url(#clip1)"><rect x="9583" y="4384" width="2323" height="1754" fill="#FAFAFA"/></g><g clip-path="url(#clip2)"><path d="M9582.5 6138.5 11906.5 6138.5M9582.5 6003.7 11906.5 6003.7M9582.5 5868.69 11906.5 5868.69M9582.5 5733.69 11906.5 5733.69M9582.5 5598.68 11906.5 5598.68M9582.5 5328.67 11906.5 5328.67M9582.5 5193.67 11906.5 5193.67M9582.5 5058.67 11906.5 5058.67M9582.5 4923.66 11906.5 4923.66M9582.5 4788.66 11906.5 4788.66M9582.5 4653.65 11906.5 4653.65M9582.5 4519.65 11906.5 4519.65M9582.5 4384.5 11906.5 4384.5" stroke="#F2F2F2" stroke-width="1.14583" stroke-linejoin="round" stroke-miterlimit="10" fill="none"/></g><g clip-path="url(#clip3)"><path d="M9582.5 4384.5 9582.5 6138.5M10004.8 4384.5 10004.8 6138.5M10216.8 4384.5 10216.8 6138.5M10427.8 4384.5 10427.8 6138.5M10638.8 4384.5 10638.8 6138.5M10849.9 4384.5 10849.9 6138.5M11061.9 4384.5 11061.9 6138.5M11272.9 4384.5 11272.9 6138.5M11483.9 4384.5 11483.9 6138.5M11694.9 4384.5 11694.9 6138.5M11906.5 4384.5 11906.5 6138.5" stroke="#F2F2F2" stroke-width="1.14583" stroke-linejoin="round" stroke-miterlimit="10" fill="none"/></g><g clip-path="url(#clip4)"><rect x="9583" y="4384" width="2323" height="1754" stroke="#000000" stroke-width="2.29167" stroke-linejoin="round" stroke-miterlimit="10" fill="none"/></g><g clip-path="url(#clip5)"><path d="M0 0 0.000360892 1754" stroke="#000000" stroke-width="6.875" stroke-linejoin="round" stroke-miterlimit="10" fill="none" fill-rule="evenodd" transform="matrix(1 0 0 -1 9793.5 6138.5)"/></g><g clip-path="url(#clip6)"><path d="M9778.5 6138.5 9793.5 6138.5M9778.5 6003.7 9793.5 6003.7M9778.5 5868.69 9793.5 5868.69M9778.5 5733.69 9793.5 5733.69M9778.5 5598.68 9793.5 5598.68M9778.5 5463.68 9793.5 5463.68M9778.5 5328.67 9793.5 5328.67M9778.5 5193.67 9793.5 5193.67M9778.5 5058.67 9793.5 5058.67M9778.5 4923.66 9793.5 4923.66M9778.5 4788.66 9793.5 4788.66M9778.5 4653.65 9793.5 4653.65M9778.5 4519.65 9793.5 4519.65M9778.5 4384.5 9793.5 4384.5" stroke="#000000" stroke-width="6.875" stroke-linejoin="round" stroke-miterlimit="10" fill="none"/></g><g clip-path="url(#clip7)"><path d="M9582.5 5463.5 11906.5 5463.5" stroke="#000000" stroke-width="6.875" stroke-linejoin="round" stroke-miterlimit="10" fill="none" fill-rule="evenodd"/></g><g clip-path="url(#clip8)"><path d="M9582.5 5463.5 9582.5 5478.5M9793.82 5463.5 9793.82 5478.5M10004.8 5463.5 10004.8 5478.5M10216.8 5463.5 10216.8 5478.5M10427.8 5463.5 10427.8 5478.5M10638.8 5463.5 10638.8 5478.5M10849.9 5463.5 10849.9 5478.5M11061.9 5463.5 11061.9 5478.5M11272.9 5463.5 11272.9 5478.5M11483.9 5463.5 11483.9 5478.5M11694.9 5463.5 11694.9 5478.5M11906.5 5463.5 11906.5 5478.5" stroke="#000000" stroke-width="6.875" stroke-linejoin="round" stroke-miterlimit="10" fill="none"/></g><g clip-path="url(#clip9)"><path d="M9793.5 5463.5 10321.8 1415.55 12434.5-14776.5" stroke="#000000" stroke-width="4.58333" stroke-linecap="round" stroke-linejoin="round" stroke-miterlimit="10" stroke-dasharray="13.75 18.3333" fill="none"/></g><g clip-path="url(#clip10)"><path d="M9794 5464 10322.3 2900.09 12434-7355" stroke="#000000" stroke-width="8.02083" stroke-linecap="round" stroke-linejoin="round" stroke-miterlimit="10" stroke-dasharray="0 16.0417" fill="none"/></g><g clip-path="url(#clip11)"><path d="M9825.6 4955.09C9825.6 4966.14 9816.64 4975.09 9805.6 4975.09 9794.55 4975.09 9785.6 4966.14 9785.6 4955.09 9785.6 4944.05 9794.55 4935.09 9805.6 4935.09 9816.64 4935.09 9825.6 4944.05 9825.6 4955.09Z" stroke="#BF9000" stroke-width="3.4375" stroke-linejoin="round" stroke-miterlimit="10" fill="#FFFFFF"/></g><g clip-path="url(#clip12)"><path d="M9857.1 5062.09C9857.1 5073.41 9847.92 5082.59 9836.6 5082.59 9825.28 5082.59 9816.1 5073.41 9816.1 5062.09 9816.1 5050.77 9825.28 5041.59 9836.6 5041.59 9847.92 5041.59 9857.1 5050.77 9857.1 5062.09Z" fill="#ED7D31"/></g><g clip-path="url(#clip13)"><path d="M10210.6 5464.09 10228.6 5500.09 10192.6 5500.09Z" stroke="#548235" stroke-width="4.58333" stroke-linejoin="round" stroke-miterlimit="10" fill="none"/></g><g clip-path="url(#clip14)"><path d="M10799.6 5906.09 10817.6 5942.09 10781.6 5942.09Z" stroke="#3D96AE" stroke-width="3.4375" stroke-linejoin="round" stroke-miterlimit="10" fill="#548235"/></g><g clip-path="url(#clip15)"><path d="M9888.6 5174.09 9924.6 5174.09 9924.6 5210.09 9888.6 5210.09Z" stroke="#FFFFFF" stroke-width="3.4375" stroke-linejoin="round" stroke-miterlimit="10" fill="#FFFFFF"/></g><g clip-path="url(#clip16)"><path d="M9925.1 5210.59 9888.1 5173.59M9888.1 5210.59 9925.1 5173.59" stroke="#7030A0" stroke-width="3.4375" stroke-linejoin="round" stroke-miterlimit="10" fill="#FFFFFF"/></g><g clip-path="url(#clip17)"><path d="M10200.1 5341.59 10218.1 5359.59 10200.1 5377.59 10182.1 5359.59Z" stroke="#7030A0" stroke-width="5.72917" stroke-linejoin="round" stroke-miterlimit="10" fill="#7030A0"/></g><g clip-path="url(#clip18)"><text font-family="HelveticaNeueLT Std,HelveticaNeueLT Std_MSFontService,sans-serif" font-weight="400" font-size="48" transform="matrix(1 0 0 1 9440.37 6154)">-500</text></g><g clip-path="url(#clip19)"><text font-family="HelveticaNeueLT Std,HelveticaNeueLT Std_MSFontService,sans-serif" font-weight="400" font-size="48" transform="matrix(1 0 0 1 9440.37 6019)">-400</text></g><g clip-path="url(#clip20)"><text font-family="HelveticaNeueLT Std,HelveticaNeueLT Std_MSFontService,sans-serif" font-weight="400" font-size="48" transform="matrix(1 0 0 1 9440.37 5884)">-300</text></g><g clip-path="url(#clip21)"><text font-family="HelveticaNeueLT Std,HelveticaNeueLT Std_MSFontService,sans-serif" font-weight="400" font-size="48" transform="matrix(1 0 0 1 9440.37 5750)">-200</text></g><g clip-path="url(#clip22)"><text font-family="HelveticaNeueLT Std,HelveticaNeueLT Std_MSFontService,sans-serif" font-weight="400" font-size="48" transform="matrix(1 0 0 1 9440.37 5615)">-100</text></g><g clip-path="url(#clip23)"><text font-family="HelveticaNeueLT Std,HelveticaNeueLT Std_MSFontService,sans-serif" font-weight="400" font-size="48" transform="matrix(1 0 0 1 9512.63 5480)">0</text></g><g clip-path="url(#clip24)"><text font-family="HelveticaNeueLT Std,HelveticaNeueLT Std_MSFontService,sans-serif" font-weight="400" font-size="48" transform="matrix(1 0 0 1 9459.09 5345)">100</text></g><g clip-path="url(#clip25)"><text font-family="HelveticaNeueLT Std,HelveticaNeueLT Std_MSFontService,sans-serif" font-weight="400" font-size="48" transform="matrix(1 0 0 1 9459.09 5210)">200</text></g><g clip-path="url(#clip26)"><text font-family="HelveticaNeueLT Std,HelveticaNeueLT Std_MSFontService,sans-serif" font-weight="400" font-size="48" transform="matrix(1 0 0 1 9459.09 5075)">300</text></g><g clip-path="url(#clip27)"><text font-family="HelveticaNeueLT Std,HelveticaNeueLT Std_MSFontService,sans-serif" font-weight="400" font-size="48" transform="matrix(1 0 0 1 9459.09 4940)">400</text></g><g clip-path="url(#clip28)"><text font-family="HelveticaNeueLT Std,HelveticaNeueLT Std_MSFontService,sans-serif" font-weight="400" font-size="48" transform="matrix(1 0 0 1 9459.09 4805)">500</text></g><g clip-path="url(#clip29)"><text font-family="HelveticaNeueLT Std,HelveticaNeueLT Std_MSFontService,sans-serif" font-weight="400" font-size="48" transform="matrix(1 0 0 1 9459.09 4670)">600</text></g><g clip-path="url(#clip30)"><text font-family="HelveticaNeueLT Std,HelveticaNeueLT Std_MSFontService,sans-serif" font-weight="400" font-size="48" transform="matrix(1 0 0 1 9459.09 4535)">700</text></g><g clip-path="url(#clip31)"><text font-family="HelveticaNeueLT Std,HelveticaNeueLT Std_MSFontService,sans-serif" font-weight="400" font-size="48" transform="matrix(1 0 0 1 9459.09 4400)">800</text></g><g clip-path="url(#clip32)"><text font-family="HelveticaNeueLT Std,HelveticaNeueLT Std_MSFontService,sans-serif" font-weight="400" font-size="48" transform="matrix(1 0 0 1 9546.58 6215)">-40</text></g><g clip-path="url(#clip33)"><text font-family="HelveticaNeueLT Std,HelveticaNeueLT Std_MSFontService,sans-serif" font-weight="400" font-size="48" transform="matrix(1 0 0 1 9780.57 6215)">0</text></g><g clip-path="url(#clip34)"><text font-family="HelveticaNeueLT Std,HelveticaNeueLT Std_MSFontService,sans-serif" font-weight="400" font-size="48" transform="matrix(1 0 0 1 9978.43 6215)">40</text></g><g clip-path="url(#clip35)"><text font-family="HelveticaNeueLT Std,HelveticaNeueLT Std_MSFontService,sans-serif" font-weight="400" font-size="48" transform="matrix(1 0 0 1 10189.7 6215)">80</text></g><g clip-path="url(#clip36)"><text font-family="HelveticaNeueLT Std,HelveticaNeueLT Std_MSFontService,sans-serif" font-weight="400" font-size="48" transform="matrix(1 0 0 1 10387.5 6215)">120</text></g><g clip-path="url(#clip37)"><text font-family="HelveticaNeueLT Std,HelveticaNeueLT Std_MSFontService,sans-serif" font-weight="400" font-size="48" transform="matrix(1 0 0 1 10598.8 6215)">160</text></g><g clip-path="url(#clip38)"><text font-family="HelveticaNeueLT Std,HelveticaNeueLT Std_MSFontService,sans-serif" font-weight="400" font-size="48" transform="matrix(1 0 0 1 10810 6215)">200</text></g><g clip-path="url(#clip39)"><text font-family="HelveticaNeueLT Std,HelveticaNeueLT Std_MSFontService,sans-serif" font-weight="400" font-size="48" transform="matrix(1 0 0 1 11021.2 6215)">240</text></g><g clip-path="url(#clip40)"><text font-family="HelveticaNeueLT Std,HelveticaNeueLT Std_MSFontService,sans-serif" font-weight="400" font-size="48" transform="matrix(1 0 0 1 11232.5 6215)">280</text></g><g clip-path="url(#clip41)"><text font-family="HelveticaNeueLT Std,HelveticaNeueLT Std_MSFontService,sans-serif" font-weight="400" font-size="48" transform="matrix(1 0 0 1 11443.7 6215)">320</text></g><g clip-path="url(#clip42)"><text font-family="HelveticaNeueLT Std,HelveticaNeueLT Std_MSFontService,sans-serif" font-weight="400" font-size="48" transform="matrix(1 0 0 1 11655 6215)">360</text></g><g clip-path="url(#clip43)"><text font-family="HelveticaNeueLT Std,HelveticaNeueLT Std_MSFontService,sans-serif" font-weight="400" font-size="48" transform="matrix(1 0 0 1 11866.2 6215)">400</text></g><g clip-path="url(#clip44)"><text font-family="HelveticaNeueLT Std,HelveticaNeueLT Std_MSFontService,sans-serif" font-weight="400" font-size="48" transform="matrix(6.12323e-17 -1 1 6.12323e-17 9346.21 5680)">Incremental Costs per 100,000 pop, ('000s)</text></g><g clip-path="url(#clip45)"><text font-family="HelveticaNeueLT Std,HelveticaNeueLT Std_MSFontService,sans-serif" font-weight="400" font-size="48" transform="matrix(1 0 0 1 10318.5 6275)">DALYs averted per 100,000 pop</text></g><g clip-path="url(#clip46)"><rect x="10195.5" y="4428.5" width="1339" height="148" stroke="#000000" stroke-width="3.4375" stroke-linejoin="round" stroke-miterlimit="10" fill="#FFFFFF"/></g><g clip-path="url(#clip47)"><text font-family="HelveticaNeueLT Std,HelveticaNeueLT Std_MSFontService,sans-serif" font-weight="400" font-size="58" transform="matrix(1 0 0 1 10209 4490)">Older population (80% initial vaccination coverage)</text></g><g clip-path="url(#clip48)"><text font-family="HelveticaNeueLT Std,HelveticaNeueLT Std_MSFontService,sans-serif" font-weight="400" font-size="58" transform="matrix(1 0 0 1 10539.7 4557)">high TP, boosting at 2 yrs</text></g><g clip-path="url(#clip49)"><path d="M10573 4622.5C10573 4629.41 10567.2 4635.02 10560 4635.02 10552.8 4635.02 10547 4629.41 10547 4622.5 10547 4615.59 10552.8 4609.98 10560 4609.98 10567.2 4609.98 10573 4615.59 10573 4622.5Z" stroke="#BF9000" stroke-width="3.4375" stroke-linejoin="round" stroke-miterlimit="10" fill="#FFFFFF"/></g><g clip-path="url(#clip50)"><text font-family="HelveticaNeueLT Std,HelveticaNeueLT Std_MSFontService,sans-serif" font-weight="400" font-size="48" transform="matrix(1 0 0 1 10630.6 4639)">Pediatric boosting, immune escape 1.5yrs</text></g><g clip-path="url(#clip51)"><path d="M10573 4692.5C10573 4699.96 10567 4706 10559.5 4706 10552 4706 10546 4699.96 10546 4692.5 10546 4685.04 10552 4679 10559.5 4679 10567 4679 10573 4685.04 10573 4692.5Z" fill="#ED7D31"/></g><g clip-path="url(#clip52)"><text font-family="HelveticaNeueLT Std,HelveticaNeueLT Std_MSFontService,sans-serif" font-weight="400" font-size="48" transform="matrix(1 0 0 1 10630.6 4710)">Pediatric boosting, immune escape 2.5yrs</text></g><g clip-path="url(#clip53)"><path d="M10560.5 4751.5 10573.5 4777.5 10547.5 4777.5Z" stroke="#548235" stroke-width="4.58333" stroke-linejoin="round" stroke-miterlimit="10" fill="none"/></g><g clip-path="url(#clip54)"><text font-family="HelveticaNeueLT Std,HelveticaNeueLT Std_MSFontService,sans-serif" font-weight="400" font-size="48" transform="matrix(1 0 0 1 10630.6 4780)">High risk boosting, immune escape 1.5yrs</text></g><g clip-path="url(#clip55)"><path d="M10560.5 4821.5 10573.5 4847.5 10547.5 4847.5Z" stroke="#3D96AE" stroke-width="3.4375" stroke-linejoin="round" stroke-miterlimit="10" fill="#548235"/></g><g clip-path="url(#clip56)"><text font-family="HelveticaNeueLT Std,HelveticaNeueLT Std_MSFontService,sans-serif" font-weight="400" font-size="48" transform="matrix(1 0 0 1 10630.6 4851)">High risk boosting, immune escape 2.5yrs</text></g><g clip-path="url(#clip57)"><path d="M10547.8 4892.66 10573.8 4892.66 10573.8 4918.66 10547.8 4918.66Z" stroke="#FFFFFF" stroke-width="3.4375" stroke-linejoin="round" stroke-miterlimit="10" fill="#FFFFFF"/></g><g clip-path="url(#clip58)"><path d="M10573.5 4918.5 10546.5 4891.5M10546.5 4918.5 10573.5 4891.5" stroke="#7030A0" stroke-width="3.4375" stroke-linejoin="round" stroke-miterlimit="10" fill="#FFFFFF"/></g><g clip-path="url(#clip59)"><text font-family="HelveticaNeueLT Std,HelveticaNeueLT Std_MSFontService,sans-serif" font-weight="400" font-size="48" transform="matrix(1 0 0 1 10630.6 4921)">Random boosting, immune escape 1.5yrs</text></g><g clip-path="url(#clip60)"><path d="M10560 4962 10573 4975 10560 4988 10547 4975Z" stroke="#7030A0" stroke-width="5.72917" stroke-linejoin="round" stroke-miterlimit="10" fill="#7030A0"/></g><g clip-path="url(#clip61)"><text font-family="HelveticaNeueLT Std,HelveticaNeueLT Std_MSFontService,sans-serif" font-weight="400" font-size="48" transform="matrix(1 0 0 1 10630.6 4992)">Random boosting, immune escape 2.5yrs</text></g><g clip-path="url(#clip62)"><path d="M10502.5 5046.5 10617.5 5046.5" stroke="#000000" stroke-width="4.58333" stroke-linecap="round" stroke-linejoin="round" stroke-miterlimit="10" stroke-dasharray="13.75 18.3333" fill="none" fill-rule="evenodd"/></g><g clip-path="url(#clip63)"><text font-family="HelveticaNeueLT Std,HelveticaNeueLT Std_MSFontService,sans-serif" font-weight="400" font-size="48" transform="matrix(1 0 0 1 10630.6 5062)">WTP threshold - higher</text></g><g clip-path="url(#clip64)"><path d="M10502 5117 10618 5117" stroke="#000000" stroke-width="8.02083" stroke-linecap="round" stroke-linejoin="round" stroke-miterlimit="10" stroke-dasharray="0 16.0417" fill="none" fill-rule="evenodd"/></g><g clip-path="url(#clip65)"><text font-family="HelveticaNeueLT Std,HelveticaNeueLT Std_MSFontService,sans-serif" font-weight="400" font-size="48" transform="matrix(1 0 0 1 10630.6 5133)">WTP threshold - lower</text></g><rect x="9283.5" y="4334.5" width="2704" height="1989" stroke="#D9D9D9" stroke-width="1.14583" stroke-linejoin="round" stroke-miterlimit="10" fill="none"/></g></svg>